<svg width="30" height="30" viewBox="0 0 24 24" fill="none" xmlns="http://www.w3.org/2000/svg">
<g clip-path="url(#clip0_72_567)">
<path d="M12 24C18.6274 24 24 18.6274 24 12C24 5.37258 18.6274 0 12 0C5.37258 0 0 5.37258 0 12C0 18.6274 5.37258 24 12 24Z" fill="#F5EEE5"/>
<mask id="mask0_72_567" style="mask-type:luminance" maskUnits="userSpaceOnUse" x="0" y="0" width="24" height="24">
<path d="M12 24C18.6274 24 24 18.6274 24 12C24 5.37258 18.6274 0 12 0C5.37258 0 0 5.37258 0 12C0 18.6274 5.37258 24 12 24Z" fill="white"/>
</mask>
<g mask="url(#mask0_72_567)">
<path d="M15.6 18.2159L22.296 20.0639C23.064 20.3279 23.664 20.9039 24 21.6479V23.9999H0V21.6479C0.312 20.9039 0.936 20.3279 1.704 20.0639L8.4 18.2159V14.6399H15.6V18.2159Z" fill="#E6C19C"/>
</g>
<mask id="mask1_72_567" style="mask-type:luminance" maskUnits="userSpaceOnUse" x="0" y="0" width="24" height="24">
<path d="M12 24C18.6274 24 24 18.6274 24 12C24 5.37258 18.6274 0 12 0C5.37258 0 0 5.37258 0 12C0 18.6274 5.37258 24 12 24Z" fill="white"/>
</mask>
<g mask="url(#mask1_72_567)">
<mask id="mask2_72_567" style="mask-type:luminance" maskUnits="userSpaceOnUse" x="0" y="14" width="24" height="10">
<path d="M15.6 18.2159L22.296 20.0639C23.064 20.3279 23.664 20.9039 24 21.6479V23.9999H0V21.6479C0.312 20.9039 0.936 20.3279 1.704 20.0639L8.4 18.2159V14.6399H15.6V18.2159Z" fill="white"/>
</mask>
<g mask="url(#mask2_72_567)">
<path d="M0 13.9199H24V23.9999H0V13.9199ZM12 21.1199C14.64 21.1199 16.8 19.6079 16.8 17.7599C16.8 15.9119 14.64 14.3999 12 14.3999C9.36 14.3999 7.2 15.9119 7.2 17.7599C7.2 19.6079 9.36 21.1199 12 21.1199Z" fill="#E6A422"/>
</g>
<mask id="mask3_72_567" style="mask-type:luminance" maskUnits="userSpaceOnUse" x="0" y="14" width="24" height="10">
<path d="M15.6 18.2159L22.296 20.0639C23.064 20.3279 23.664 20.9039 24 21.6479V23.9999H0V21.6479C0.312 20.9039 0.936 20.3279 1.704 20.0639L8.4 18.2159V14.6399H15.6V18.2159Z" fill="white"/>
</mask>
<g mask="url(#mask3_72_567)">
<path d="M11.9999 18.7199C11.5919 18.7199 11.0639 18.6239 10.7039 18.4559C10.2959 18.2399 8.78395 16.9919 8.25595 16.4639C7.58395 15.7439 7.24795 14.8319 7.15195 13.2719C7.05595 11.7119 6.64795 6.14392 6.64795 4.87192C6.64795 3.07192 8.01595 0.263916 11.9519 0.263916H11.9759H11.9999C15.9599 0.287916 17.3039 3.07192 17.3039 4.87192C17.3039 6.14392 16.8959 11.7119 16.7999 13.2719C16.7039 14.8319 16.3679 15.7199 15.6959 16.4639C15.1919 17.0159 13.6799 18.2399 13.2479 18.4559C12.9359 18.6239 12.4079 18.7199 11.9999 18.7199Z" fill="#D4B08C"/>
</g>
<mask id="mask4_72_567" style="mask-type:luminance" maskUnits="userSpaceOnUse" x="0" y="14" width="24" height="10">
<path d="M15.6 18.2159L22.296 20.0639C23.064 20.3279 23.664 20.9039 24 21.6479V23.9999H0V21.6479C0.312 20.9039 0.936 20.3279 1.704 20.0639L8.4 18.2159V14.6399H15.6V18.2159Z" fill="white"/>
</mask>
<g mask="url(#mask4_72_567)">
<path d="M12 13.9199C8.95198 13.9199 6.47998 15.6959 6.47998 17.8799C6.47998 20.0639 8.95198 21.8399 12 21.8399C15.048 21.8399 17.52 20.0639 17.52 17.8799C17.52 15.6959 15.048 13.9199 12 13.9199ZM12 20.8799C9.47998 20.8799 7.43998 19.4399 7.43998 17.6399C7.43998 15.8399 9.47998 14.3999 12 14.3999C14.52 14.3999 16.56 15.8399 16.56 17.6399C16.56 19.4399 14.52 20.8799 12 20.8799Z" fill="#D98C21"/>
</g>
</g>
<path d="M12 17.7601C11.64 17.7601 11.16 17.6881 10.848 17.5441C10.464 17.3761 9.11995 16.4401 8.66395 16.0321C8.06395 15.4801 7.75195 14.8081 7.65595 13.6321C7.55995 12.4561 7.19995 8.28009 7.19995 7.32009C7.19995 5.95209 8.42395 3.84009 12 3.84009C15.576 3.84009 16.8 5.95209 16.8 7.32009C16.8 8.28009 16.44 12.4801 16.344 13.6561C16.248 14.8321 15.96 15.5041 15.336 16.0561C14.88 16.4641 13.512 17.4001 13.152 17.5681C12.84 17.6881 12.36 17.7601 12 17.7601Z" fill="#F2CEA5"/>
<path d="M13.6799 14.76C13.2239 15.24 12.4319 15.48 11.7359 15.336C11.0879 15.192 10.6079 14.856 10.3679 14.304L13.6799 14.76Z" fill="#A3705F"/>
<path d="M13.6799 14.76C13.2239 15.24 12.4319 15.48 11.7359 15.336C11.0879 15.192 10.6079 14.856 10.3679 14.304L13.6799 14.76Z" stroke="#A3705F" stroke-width="0.24" stroke-linecap="round" stroke-linejoin="round"/>
<mask id="mask5_72_567" style="mask-type:luminance" maskUnits="userSpaceOnUse" x="8" y="9" width="8" height="3">
<path d="M15.5999 9.84009H8.15991V11.0401H15.5999V9.84009Z" fill="white"/>
</mask>
<g mask="url(#mask5_72_567)">
<path d="M14.1599 11.2801C14.425 11.2801 14.6399 11.0652 14.6399 10.8001C14.6399 10.535 14.425 10.3201 14.1599 10.3201C13.8948 10.3201 13.6799 10.535 13.6799 10.8001C13.6799 11.0652 13.8948 11.2801 14.1599 11.2801Z" fill="#291F21"/>
</g>
<mask id="mask6_72_567" style="mask-type:luminance" maskUnits="userSpaceOnUse" x="8" y="9" width="8" height="3">
<path d="M15.5999 9.84009H8.15991V11.0401H15.5999V9.84009Z" fill="white"/>
</mask>
<g mask="url(#mask6_72_567)">
<path d="M9.83986 11.2801C10.105 11.2801 10.3199 11.0652 10.3199 10.8001C10.3199 10.535 10.105 10.3201 9.83986 10.3201C9.57477 10.3201 9.35986 10.535 9.35986 10.8001C9.35986 11.0652 9.57477 11.2801 9.83986 11.2801Z" fill="#291F21"/>
</g>
<path d="M8.3999 10.0801C8.3999 10.0801 8.6639 9.36011 9.8639 9.36011C10.6799 9.36011 11.1599 9.72011 11.3999 10.0801" stroke="#CC9872" stroke-width="0.48"/>
<path d="M15.624 10.0801C15.624 10.0801 15.36 9.36011 14.16 9.36011C13.008 9.36011 12.48 10.0801 12.48 10.5601C12.48 11.0161 12.48 12.7201 12.48 12.7201" stroke="#BB8660" stroke-width="0.48"/>
<path d="M16.5121 11.5679C16.5121 11.5679 16.7041 10.0559 17.4001 9.83989C17.4961 9.40789 17.7601 8.15989 17.7601 7.46389C17.7601 6.76789 17.6881 6.09589 17.3041 5.51989C16.8721 4.89589 15.9601 4.53589 15.4801 4.53589C14.9281 4.87189 13.6321 5.63989 13.2241 6.09589C13.0081 6.33589 13.3201 6.52789 13.3201 6.52789C13.3201 6.52789 13.6081 6.40789 13.7281 6.38389C14.3281 6.21589 15.6481 6.09589 16.0561 6.69589C16.5601 7.41589 16.5601 9.52789 16.5601 9.83989C16.5601 10.1279 16.5121 11.5679 16.5121 11.5679Z" fill="#452228"/>
<path d="M6.59999 9.84C7.29599 10.08 7.48799 11.568 7.48799 11.568C7.48799 11.568 7.43999 10.128 7.43999 9.84C7.43999 9.456 7.48799 7.656 8.25599 6.792C9.11999 5.832 10.272 5.52 10.92 5.952C11.256 6.168 12.384 7.272 13.584 6.36C14.304 5.808 15.624 4.56 15.624 4.56C15.624 4.56 14.928 2.424 11.76 2.664C10.416 2.784 8.92799 2.448 8.92799 2.448C8.92799 2.448 8.90399 3.048 9.14399 3.36C7.15199 3.936 6.50399 5.376 6.31199 6.48C6.26399 6.696 6.23999 6.912 6.23999 7.128C6.23999 7.248 6.23999 7.368 6.23999 7.464C6.23999 8.16 6.50399 9.384 6.59999 9.84Z" fill="#6B363E"/>
<rect x="18" y="19" width="5" height="5" rx="2.5" fill="#30A66D"/>
</g>
<defs>
<clipPath id="clip0_72_567">
<rect width="24" height="24" fill="white"/>
</clipPath>
</defs>
</svg>
