<svg width="25" height="25" viewBox="0 0 25 25" fill="none" xmlns="http://www.w3.org/2000/svg">
<path d="M7.54168 2.0835H5.56251C3.28126 2.0835 2.08334 3.28141 2.08334 5.55225V7.53141C2.08334 9.80225 3.28126 11.0002 5.55209 11.0002H7.53126C9.80209 11.0002 11 9.80225 11 7.53141V5.55225C11.0104 3.28141 9.81251 2.0835 7.54168 2.0835Z" fill="#8B4AA3"/>
<path opacity="0.4" d="M19.4474 2.0835H17.4682C15.1974 2.0835 13.9995 3.28141 13.9995 5.55225V7.53141C13.9995 9.80225 15.1974 11.0002 17.4682 11.0002H19.4474C21.7182 11.0002 22.9161 9.80225 22.9161 7.53141V5.55225C22.9161 3.28141 21.7182 2.0835 19.4474 2.0835Z" fill="#8B4AA3"/>
<path d="M19.4474 13.9897H17.4682C15.1974 13.9897 13.9995 15.1877 13.9995 17.4585V19.4377C13.9995 21.7085 15.1974 22.9064 17.4682 22.9064H19.4474C21.7182 22.9064 22.9161 21.7085 22.9161 19.4377V17.4585C22.9161 15.1877 21.7182 13.9897 19.4474 13.9897Z" fill="#8B4AA3"/>
<path opacity="0.4" d="M7.54168 13.9897H5.56251C3.28126 13.9897 2.08334 15.1877 2.08334 17.4585V19.4377C2.08334 21.7189 3.28126 22.9168 5.55209 22.9168H7.53126C9.80209 22.9168 11 21.7189 11 19.4481V17.4689C11.0104 15.1877 9.81251 13.9897 7.54168 13.9897Z" fill="#8B4AA3"/>
</svg>
