<svg width="25" height="25" viewBox="0 0 25 25" fill="none" xmlns="http://www.w3.org/2000/svg">
<path d="M21.875 7.29167H3.125V4.16667C3.125 3.8904 3.23475 3.62545 3.4301 3.4301C3.62545 3.23475 3.8904 3.125 4.16667 3.125H20.8333C21.1096 3.125 21.3746 3.23475 21.5699 3.4301C21.7653 3.62545 21.875 3.8904 21.875 4.16667V7.29167ZM3.125 20.8333V9.375H21.875V20.8333C21.875 21.1096 21.7653 21.3746 21.5699 21.5699C21.3746 21.7653 21.1096 21.875 20.8333 21.875H4.16667C3.8904 21.875 3.62545 21.7653 3.4301 21.5699C3.23475 21.3746 3.125 21.1096 3.125 20.8333ZM6.25 14.5833H18.75V12.5H6.25V14.5833ZM6.25 18.75H12.5V16.6667H6.25V18.75Z" fill="#8B4AA3"/>
</svg>
