<svg width="60" height="60" viewBox="0 0 60 60" fill="none" xmlns="http://www.w3.org/2000/svg">
<path d="M15 3.75C8.83301 3.75 3.75 8.83301 3.75 15V18.75H7.5V15C7.5 10.8398 10.8398 7.5 15 7.5H18.75V3.75H15ZM22.5 3.75V7.5H37.5V3.75H22.5ZM41.25 3.75V7.5H45C49.1602 7.5 52.5 10.8398 52.5 15V18.75H56.25V15C56.25 8.83301 51.167 3.75 45 3.75H41.25ZM22.5 18.75C20.4346 18.75 18.75 20.4346 18.75 22.5C18.75 24.5654 20.4346 26.25 22.5 26.25C24.5654 26.25 26.25 24.5654 26.25 22.5C26.25 20.4346 24.5654 18.75 22.5 18.75ZM3.75 22.5V37.5H7.5V22.5H3.75ZM52.5 22.5V37.5H56.25V22.5H52.5ZM35.625 30L28.125 37.5L22.5 33.75L15 41.25V43.125C15 45 16.875 45 16.875 45H43.125C43.125 45 44.8975 44.8682 45 43.125V39.375L35.625 30ZM3.75 41.25V45C3.75 51.167 8.83301 56.25 15 56.25H18.75V52.5H15C10.8398 52.5 7.5 49.1602 7.5 45V41.25H3.75ZM52.5 41.25V45C52.5 49.1602 49.1602 52.5 45 52.5H41.25V56.25H45C51.167 56.25 56.25 51.167 56.25 45V41.25H52.5ZM22.5 52.5V56.25H37.5V52.5H22.5Z" fill="#E4A4FB"/>
</svg>
