<svg width="209" height="209" viewBox="0 0 209 209" fill="none" xmlns="http://www.w3.org/2000/svg">
<path d="M52.25 13.0625C30.7683 13.0625 13.0625 30.7683 13.0625 52.25V65.3125H26.125V52.25C26.125 37.7588 37.7588 26.125 52.25 26.125H65.3125V13.0625H52.25ZM78.375 13.0625V26.125H130.625V13.0625H78.375ZM143.688 13.0625V26.125H156.75C171.241 26.125 182.875 37.7588 182.875 52.25V65.3125H195.938V52.25C195.938 30.7683 178.232 13.0625 156.75 13.0625H143.688ZM78.375 65.3125C71.1804 65.3125 65.3125 71.1804 65.3125 78.375C65.3125 85.5696 71.1804 91.4375 78.375 91.4375C85.5696 91.4375 91.4375 85.5696 91.4375 78.375C91.4375 71.1804 85.5696 65.3125 78.375 65.3125ZM13.0625 78.375V130.625H26.125V78.375H13.0625ZM182.875 78.375V130.625H195.938V78.375H182.875ZM124.094 104.5L97.9688 130.625L78.375 117.562L52.25 143.688V150.219C52.25 156.75 58.7812 156.75 58.7812 156.75H150.219C150.219 156.75 156.393 156.291 156.75 150.219V137.156L124.094 104.5ZM13.0625 143.688V156.75C13.0625 178.232 30.7683 195.938 52.25 195.938H65.3125V182.875H52.25C37.7588 182.875 26.125 171.241 26.125 156.75V143.688H13.0625ZM182.875 143.688V156.75C182.875 171.241 171.241 182.875 156.75 182.875H143.688V195.938H156.75C178.232 195.938 195.938 178.232 195.938 156.75V143.688H182.875ZM78.375 182.875V195.938H130.625V182.875H78.375Z" fill="#2E3434" fill-opacity="0.34902"/>
</svg>
