<svg width="18" height="23" viewBox="0 0 18 23" fill="none" xmlns="http://www.w3.org/2000/svg">
<path d="M6.87 22.11L5.46 21.75L11.1 0.33L12.54 0.719998L6.87 22.11ZM4.41 10.2C3.57 10.2 2.87 10.04 2.31 9.72C1.77 9.38 1.37 8.87 1.11 8.19C0.85 7.49 0.72 6.6 0.72 5.52C0.72 4.44 0.85 3.56 1.11 2.88C1.39 2.2 1.8 1.71 2.34 1.41C2.9 1.09 3.59 0.929999 4.41 0.929999C5.27 0.929999 5.97 1.09 6.51 1.41C7.05 1.71 7.45 2.2 7.71 2.88C7.97 3.56 8.1 4.44 8.1 5.52C8.1 6.6 7.97 7.49 7.71 8.19C7.45 8.87 7.05 9.38 6.51 9.72C5.97 10.04 5.27 10.2 4.41 10.2ZM4.41 8.01C4.69 8.01 4.91 7.94 5.07 7.8C5.23 7.64 5.34 7.38 5.4 7.02C5.48 6.64 5.52 6.14 5.52 5.52C5.52 4.9 5.48 4.42 5.4 4.08C5.34 3.72 5.23 3.47 5.07 3.33C4.91 3.17 4.69 3.09 4.41 3.09C4.13 3.09 3.91 3.17 3.75 3.33C3.59 3.47 3.48 3.72 3.42 4.08C3.36 4.42 3.33 4.9 3.33 5.52C3.33 6.14 3.36 6.64 3.42 7.02C3.48 7.38 3.59 7.64 3.75 7.8C3.91 7.94 4.13 8.01 4.41 8.01ZM13.65 21.33C12.79 21.33 12.08 21.17 11.52 20.85C10.98 20.51 10.58 20 10.32 19.32C10.06 18.62 9.93 17.73 9.93 16.65C9.93 15.57 10.06 14.69 10.32 14.01C10.6 13.33 11.01 12.83 11.55 12.51C12.11 12.19 12.81 12.03 13.65 12.03C14.49 12.03 15.18 12.19 15.72 12.51C16.26 12.83 16.66 13.33 16.92 14.01C17.2 14.69 17.34 15.57 17.34 16.65C17.34 17.73 17.2 18.62 16.92 19.32C16.66 20 16.26 20.51 15.72 20.85C15.18 21.17 14.49 21.33 13.65 21.33ZM13.65 19.14C13.91 19.14 14.12 19.07 14.28 18.93C14.46 18.77 14.58 18.51 14.64 18.15C14.7 17.77 14.73 17.27 14.73 16.65C14.73 16.01 14.7 15.52 14.64 15.18C14.58 14.82 14.47 14.58 14.31 14.46C14.15 14.32 13.93 14.25 13.65 14.25C13.35 14.25 13.12 14.32 12.96 14.46C12.8 14.58 12.69 14.82 12.63 15.18C12.57 15.52 12.54 16.01 12.54 16.65C12.54 17.27 12.57 17.77 12.63 18.15C12.71 18.51 12.83 18.77 12.99 18.93C13.15 19.07 13.37 19.14 13.65 19.14Z" fill="#959595"/>
</svg>
