<svg width="30" height="30" viewBox="0 0 30 30" fill="none" xmlns="http://www.w3.org/2000/svg">
<path fill-rule="evenodd" clip-rule="evenodd" d="M26.9313 15.4409C27.2822 15.7918 27.4794 16.2695 27.4794 16.7666V25.6016C27.4794 26.6363 26.6415 27.4747 25.6059 27.4766L16.7669 27.4803C16.2706 27.4803 15.7934 27.2826 15.4399 26.931L8.72111 20.2116C8.30936 22.1739 8.08299 24.3664 8.08299 26.7991C8.08299 27.1443 7.80317 27.4241 7.45799 27.4241C7.1128 27.4241 6.83299 27.1443 6.83299 26.7991C6.83299 23.9534 7.13361 21.4131 7.67574 19.1661L3.05047 14.5403C2.31689 13.8086 2.31689 12.6195 3.04988 11.8884L11.8874 3.04962C12.6202 2.31679 13.8072 2.31679 14.54 3.04962L24.1054 12.6149C24.2842 12.1613 24.4434 11.7093 24.5781 11.2661C25.6762 7.65413 25.0377 5.61131 22.4811 5.61131C21.5413 5.61131 20.6459 5.73236 19.7955 5.96429C19.4625 6.05511 19.1189 5.85878 19.0281 5.52576C18.9373 5.19275 19.1336 4.84916 19.4667 4.75834C20.4237 4.49731 21.4297 4.36131 22.4811 4.36131C26.1477 4.36131 27.0784 7.33919 25.774 11.6297C25.58 12.268 25.3396 12.9221 25.0641 13.5737L26.9313 15.4409ZM8.05292 17.7754L3.93382 13.6559C3.68931 13.412 3.68931 13.0161 3.93323 12.7728L12.7713 3.93347C13.016 3.68884 13.4115 3.68884 13.6562 3.93351L23.5724 13.8497C22.4472 16.253 20.8832 18.507 19.602 19.4844C19.3276 19.6938 19.2748 20.0859 19.4842 20.3604C19.6935 20.6348 20.0857 20.6876 20.3602 20.4783C21.7372 19.4278 23.3225 17.2057 24.5097 14.7871L26.0474 16.3248C26.1635 16.4408 26.2294 16.6004 26.2294 16.7666V25.6016C26.2294 25.9465 25.9501 26.2259 25.6045 26.2266L16.7666 26.2303C16.6016 26.2303 16.4411 26.1638 16.3226 26.0459L9.06324 18.7858C9.37755 17.6279 9.76061 16.5594 10.2023 15.5777C10.661 14.5583 11.1503 13.7101 11.6367 13.0254C11.9218 12.6242 12.137 12.3714 12.2487 12.2598C12.4927 12.0157 12.4927 11.6199 12.2487 11.3759C12.0046 11.1318 11.6089 11.1318 11.3648 11.3759C11.2047 11.5359 10.9442 11.8419 10.6177 12.3014C10.0849 13.0514 9.55499 13.9701 9.06236 15.0648C8.68242 15.9092 8.34411 16.8124 8.05292 17.7754ZM19.9811 21.8563C21.0159 21.8563 21.8561 21.0161 21.8561 19.9813C21.8561 19.6361 22.1359 19.3563 22.4811 19.3563C22.8263 19.3563 23.1061 19.6361 23.1061 19.9813C23.1061 21.7065 21.7063 23.1063 19.9811 23.1063C18.2559 23.1063 16.8561 21.7065 16.8561 19.9813C16.8561 18.2561 18.2559 16.8563 19.9811 16.8563C20.3263 16.8563 20.6061 17.1361 20.6061 17.4813C20.6061 17.8265 20.3263 18.1063 19.9811 18.1063C18.9463 18.1063 18.1061 18.9465 18.1061 19.9813C18.1061 21.0161 18.9463 21.8563 19.9811 21.8563Z" fill="#8B4AA3" stroke="#8B4AA3" stroke-width="0.5"/>
</svg>
