<svg width="60" height="60" viewBox="0 0 60 60" fill="none" xmlns="http://www.w3.org/2000/svg">
<path d="M45 41.875H40C39.5028 41.875 39.0257 41.6775 38.6742 41.3258C38.3225 40.9743 38.125 40.4972 38.125 40C38.125 39.5028 38.3225 39.0257 38.6742 38.6742C39.0257 38.3225 39.5028 38.125 40 38.125H45C45.8288 38.125 46.6237 37.7957 47.2097 37.2097C47.7957 36.6237 48.125 35.8288 48.125 35V25C48.125 24.1712 47.7957 23.3764 47.2097 22.7903C46.6237 22.2043 45.8288 21.875 45 21.875H15C14.1712 21.875 13.3763 22.2043 12.7903 22.7903C12.2042 23.3764 11.875 24.1712 11.875 25V35C11.875 35.8288 12.2042 36.6237 12.7903 37.2097C13.3763 37.7957 14.1712 38.125 15 38.125H20C20.4973 38.125 20.9742 38.3225 21.3258 38.6742C21.6774 39.0257 21.875 39.5028 21.875 40C21.875 40.4972 21.6774 40.9743 21.3258 41.3258C20.9742 41.6775 20.4973 41.875 20 41.875H15C13.1766 41.875 11.4279 41.1507 10.1386 39.8612C8.84932 38.572 8.125 36.8232 8.125 35V25C8.125 23.1766 8.84932 21.4279 10.1386 20.1386C11.4279 18.8493 13.1766 18.125 15 18.125H45C46.8232 18.125 48.572 18.8493 49.8613 20.1386C51.1507 21.4279 51.875 23.1766 51.875 25V35C51.875 36.8232 51.1507 38.572 49.8613 39.8612C48.572 41.1507 46.8232 41.875 45 41.875Z" fill="#8B4AA3"/>
<path d="M40 21.875C39.5047 21.8685 39.0315 21.6689 38.6812 21.3187C38.331 20.9684 38.1315 20.4953 38.125 20V11.875H21.875V20C21.875 20.4973 21.6774 20.9742 21.3258 21.3258C20.9742 21.6774 20.4973 21.875 20 21.875C19.5027 21.875 19.0258 21.6774 18.6742 21.3258C18.3225 20.9742 18.125 20.4973 18.125 20V11.25C18.125 10.4212 18.4542 9.62635 19.0403 9.0403C19.6263 8.45425 20.4212 8.125 21.25 8.125H38.75C39.5788 8.125 40.3737 8.45425 40.9597 9.0403C41.5457 9.62635 41.875 10.4212 41.875 11.25V20C41.8685 20.4953 41.669 20.9684 41.3188 21.3187C40.9685 21.6689 40.4953 21.8685 40 21.875Z" fill="#8B4AA3"/>
<path d="M38.75 51.875H21.25C20.4212 51.875 19.6263 51.5457 19.0403 50.9597C18.4542 50.3737 18.125 49.5788 18.125 48.75V31.25C18.125 30.4213 18.4542 29.6263 19.0403 29.0403C19.6263 28.4543 20.4212 28.125 21.25 28.125H38.75C39.5788 28.125 40.3737 28.4543 40.9597 29.0403C41.5457 29.6263 41.875 30.4213 41.875 31.25V48.75C41.875 49.5788 41.5457 50.3737 40.9597 50.9597C40.3737 51.5457 39.5788 51.875 38.75 51.875ZM21.875 48.125H38.125V31.875H21.875V48.125Z" fill="#8B4AA3"/>
</svg>
