<svg width="34" height="34" viewBox="0 0 34 34" fill="none" xmlns="http://www.w3.org/2000/svg">
<path d="M26.52 23.2119H15.6162C15.2406 23.2119 14.9362 23.5164 14.9362 23.8919V25.2485C14.9362 25.6241 15.2406 25.9285 15.6162 25.9285H26.52C26.8955 25.9285 27.2 25.6241 27.2 25.2485V23.8919C27.2 23.5164 26.8955 23.2119 26.52 23.2119Z" fill="#8B4AA3"/>
<path fill-rule="evenodd" clip-rule="evenodd" d="M11.4987 25.9285H10.1387C9.95839 25.9285 9.78543 25.8569 9.65791 25.7293C9.53038 25.6018 9.45874 25.4288 9.45874 25.2485V23.8885C9.45874 23.7081 9.53038 23.5352 9.65791 23.4077C9.78543 23.2801 9.95839 23.2085 10.1387 23.2085H11.4987C11.6791 23.2085 11.852 23.2801 11.9796 23.4077C12.1071 23.5352 12.1787 23.7081 12.1787 23.8885V25.2485C12.1836 25.3391 12.1694 25.4297 12.137 25.5144C12.1045 25.5991 12.0546 25.6761 11.9905 25.7402C11.9263 25.8044 11.8494 25.8543 11.7647 25.8867C11.6799 25.9192 11.5893 25.9334 11.4987 25.9285Z" fill="#8B4AA3"/>
<path fill-rule="evenodd" clip-rule="evenodd" d="M11.4987 19.8592H10.1387C9.95839 19.8592 9.78543 19.7875 9.65791 19.66C9.53038 19.5325 9.45874 19.3595 9.45874 19.1792V17.8192C9.45874 17.6388 9.53038 17.4659 9.65791 17.3383C9.78543 17.2108 9.95839 17.1392 10.1387 17.1392H11.4987C11.6791 17.1392 11.852 17.2108 11.9796 17.3383C12.1071 17.4659 12.1787 17.6388 12.1787 17.8192V19.1792C12.1836 19.2697 12.1694 19.3604 12.137 19.4451C12.1045 19.5298 12.0546 19.6067 11.9905 19.6709C11.9263 19.735 11.8494 19.785 11.7647 19.8174C11.6799 19.8498 11.5893 19.8641 11.4987 19.8592Z" fill="#8B4AA3"/>
<path opacity="0.4" d="M26.52 17.1426H15.6162C15.2406 17.1426 14.9362 17.447 14.9362 17.8226V19.1792C14.9362 19.5547 15.2406 19.8592 15.6162 19.8592H26.52C26.8955 19.8592 27.2 19.5547 27.2 19.1792V17.8226C27.2 17.447 26.8955 17.1426 26.52 17.1426Z" fill="#8B4AA3"/>
<path d="M26.52 11.0737H17.6528C17.2772 11.0737 16.9728 11.3782 16.9728 11.7537V13.1103C16.9728 13.4859 17.2772 13.7903 17.6528 13.7903H26.52C26.8955 13.7903 27.2 13.4859 27.2 13.1103V11.7537C27.2 11.3782 26.8955 11.0737 26.52 11.0737Z" fill="#8B4AA3"/>
<path opacity="0.4" fill-rule="evenodd" clip-rule="evenodd" d="M16.167 8.95225L15.4462 8.23145C15.4004 8.18158 15.3447 8.14177 15.2826 8.11454C15.2206 8.0873 15.1536 8.07324 15.0858 8.07324C15.0181 8.07324 14.9511 8.0873 14.889 8.11454C14.827 8.14177 14.7713 8.18158 14.7254 8.23145L10.2272 12.6889L8.40144 10.9073C8.35559 10.8574 8.29988 10.8176 8.23784 10.7903C8.17581 10.7631 8.10879 10.749 8.04104 10.749C7.97329 10.749 7.90628 10.7631 7.84425 10.7903C7.78221 10.8176 7.7265 10.8574 7.68065 10.9073L6.95984 11.6281C6.90997 11.6739 6.87016 11.7296 6.84293 11.7917C6.8157 11.8537 6.80164 11.9207 6.80164 11.9885C6.80164 12.0562 6.8157 12.1232 6.84293 12.1852C6.87016 12.2473 6.90997 12.303 6.95984 12.3489L9.46224 14.8513C9.6535 15.0423 9.91274 15.1496 10.183 15.1496C10.4533 15.1496 10.7126 15.0423 10.9038 14.8513L16.167 9.67645C16.2501 9.57407 16.2955 9.44622 16.2955 9.31435C16.2955 9.18249 16.2501 9.05464 16.167 8.95225Z" fill="#8B4AA3"/>
</svg>
