<svg width="41" height="41" viewBox="0 0 41 41" fill="none" xmlns="http://www.w3.org/2000/svg">
<g clip-path="url(#clip0_215_876)">
<path d="M5.125 2.5625C4.44538 2.5625 3.7936 2.83248 3.31304 3.31304C2.83248 3.7936 2.5625 4.44538 2.5625 5.125V35.875C2.5625 36.5546 2.83248 37.2064 3.31304 37.687C3.7936 38.1675 4.44538 38.4375 5.125 38.4375H35.875C36.5546 38.4375 37.2064 38.1675 37.687 37.687C38.1675 37.2064 38.4375 36.5546 38.4375 35.875V5.125C38.4375 4.44538 38.1675 3.7936 37.687 3.31304C37.2064 2.83248 36.5546 2.5625 35.875 2.5625H24.3438C23.6641 2.5625 23.0124 2.83248 22.5318 3.31304C22.0512 3.7936 21.7812 4.44538 21.7812 5.125V23.8133L28.5616 17.0304C28.8022 16.7898 29.1285 16.6546 29.4688 16.6546C29.809 16.6546 30.1353 16.7898 30.3759 17.0304C30.6165 17.271 30.7516 17.5973 30.7516 17.9375C30.7516 18.2777 30.6165 18.604 30.3759 18.8446L21.4071 27.8134C21.2881 27.9327 21.1467 28.0274 20.9911 28.0919C20.8354 28.1565 20.6685 28.1898 20.5 28.1898C20.3315 28.1898 20.1646 28.1565 20.0089 28.0919C19.8533 28.0274 19.7119 27.9327 19.5929 27.8134L10.6241 18.8446C10.505 18.7255 10.4105 18.5841 10.346 18.4284C10.2816 18.2728 10.2484 18.106 10.2484 17.9375C10.2484 17.769 10.2816 17.6022 10.346 17.4466C10.4105 17.2909 10.505 17.1495 10.6241 17.0304C10.7432 16.9112 10.8847 16.8168 11.0403 16.7523C11.196 16.6878 11.3628 16.6546 11.5312 16.6546C11.6997 16.6546 11.8665 16.6878 12.0222 16.7523C12.1778 16.8168 12.3193 16.9112 12.4384 17.0304L19.2188 23.8133V5.125C19.2188 3.76577 19.7587 2.4622 20.7198 1.50108C21.681 0.539954 22.9845 0 24.3438 0L35.875 0C37.2342 0 38.5378 0.539954 39.4989 1.50108C40.46 2.4622 41 3.76577 41 5.125V35.875C41 37.2342 40.46 38.5378 39.4989 39.4989C38.5378 40.46 37.2342 41 35.875 41H5.125C3.76577 41 2.4622 40.46 1.50108 39.4989C0.539954 38.5378 0 37.2342 0 35.875V5.125C0 3.76577 0.539954 2.4622 1.50108 1.50108C2.4622 0.539954 3.76577 0 5.125 0L11.5312 0C11.8711 0 12.1969 0.134988 12.4372 0.375269C12.6775 0.61555 12.8125 0.941441 12.8125 1.28125C12.8125 1.62106 12.6775 1.94695 12.4372 2.18723C12.1969 2.42751 11.8711 2.5625 11.5312 2.5625H5.125Z" fill="#8B4AA3" stroke="#8B4AA3"/>
</g>
<defs>
<clipPath id="clip0_215_876">
<rect width="41" height="41" fill="white"/>
</clipPath>
</defs>
</svg>
