<svg width="25" height="25" viewBox="0 0 25 25" fill="none" xmlns="http://www.w3.org/2000/svg">
<g clip-path="url(#clip0_212_585)">
<path d="M11.9141 20.5332H7.42188V16.1387H9.17969V17.5059H10.1562V16.1387H11.9141V20.5332ZM17.7734 20.5332H13.2812V16.1387H15.0391V17.5059H16.0156V16.1387H17.7734V20.5332ZM14.8438 14.7715H10.3516V10.377H12.1094V11.7441H13.0859V10.377H14.8438V14.7715ZM0.195312 5.88477C0.195312 7.22051 1.13525 8.35566 2.34375 8.77305V21.9004H0.195312V23.6582H24.8047V21.9004H22.6562V8.7709C23.915 8.38564 24.7753 7.26738 24.8047 5.88477V5.10352H0.195312V5.88477ZM6.37598 5.8209C6.37598 6.45342 7.03564 8.89414 9.47432 8.89414C11.5924 8.89414 12.5214 6.97861 12.5214 5.8209C12.5214 6.9002 13.245 8.89189 15.594 8.89189C17.7164 8.89189 18.6568 6.84121 18.6568 5.8209C18.6568 7.22959 19.6066 8.40059 20.8984 8.76562V21.9004H4.10156V8.77481C5.41035 8.42051 6.37598 7.2417 6.37598 5.8209ZM21.7609 1.29492H21.7773V-0.658203H3.32031V1.29492L0.195312 4.41992H24.8047L21.7609 1.29492Z" fill="#8B4AA3"/>
</g>
<defs>
<clipPath id="clip0_212_585">
<rect width="25" height="25" fill="white"/>
</clipPath>
</defs>
</svg>
