<svg width="28" height="28" viewBox="0 0 28 28" fill="none" xmlns="http://www.w3.org/2000/svg">
<path fill-rule="evenodd" clip-rule="evenodd" d="M9.33318 7.00016C9.33318 4.42283 11.4225 2.3335 13.9999 2.3335H19.8332C22.4105 2.3335 24.4999 4.42283 24.4999 7.00016V18.7268C24.4999 20.6271 22.3498 21.7305 20.806 20.6224L18.6665 19.0869V23.3935C18.6665 25.2937 16.5165 26.3972 14.9726 25.2891L11.0832 22.4976L7.19369 25.2891C5.64986 26.3972 3.49985 25.2937 3.49985 23.3935V11.6668C3.49985 9.0895 5.58918 7.00016 8.16651 7.00016H9.33318ZM11.6665 7.00016C11.6665 5.7115 12.7112 4.66683 13.9999 4.66683H19.8332C21.1218 4.66683 22.1665 5.7115 22.1665 7.00016V18.7268L18.6665 16.2148V11.6668C18.6665 9.0895 16.5772 7.00016 13.9999 7.00016H11.6665ZM8.16651 9.3335C6.87785 9.3335 5.83318 10.3782 5.83318 11.6668V23.3935L9.72267 20.602C10.5358 20.0184 11.6306 20.0184 12.4437 20.602L16.3332 23.3935V11.6668C16.3332 10.3782 15.2885 9.3335 13.9999 9.3335H8.16651Z" fill="#8B4AA3"/>
</svg>
