<svg width="25" height="25" viewBox="0 0 25 25" fill="none" xmlns="http://www.w3.org/2000/svg">
<g clip-path="url(#clip0_212_603)">
<path opacity="0.4" d="M12.5 15.6252V2.0835M12.5 2.0835L15.625 5.72933M12.5 2.0835L9.375 5.72933" stroke="#8B4AA3" stroke-width="2.5" stroke-linecap="round" stroke-linejoin="round"/>
<path d="M8.33331 22.9168H16.6666C19.6129 22.9168 21.086 22.9168 22.0013 22.0015C22.9166 21.0863 22.9166 19.613 22.9166 16.6668V15.6251C22.9166 12.6789 22.9166 11.2058 22.0013 10.2904C21.2009 9.49004 19.9739 9.38957 17.7083 9.37695M7.29165 9.37695C5.02599 9.38957 3.799 9.49004 2.9986 10.2904C2.08331 11.2058 2.08331 12.6789 2.08331 15.6251V16.6668C2.08331 19.613 2.08331 21.0863 2.9986 22.0015C3.3109 22.3138 3.68813 22.5195 4.16665 22.6551" stroke="#8B4AA3" stroke-width="2.5" stroke-linecap="round"/>
</g>
<defs>
<clipPath id="clip0_212_603">
<rect width="25" height="25" fill="white"/>
</clipPath>
</defs>
</svg>
