<svg width="25" height="25" viewBox="0 0 25 25" fill="none" xmlns="http://www.w3.org/2000/svg">
<path d="M1.04166 22.9167C1.04166 22.3414 1.50803 21.875 2.08332 21.875H22.9167C23.492 21.875 23.9583 22.3414 23.9583 22.9167C23.9583 23.492 23.492 23.9583 22.9167 23.9583H2.08332C1.50803 23.9583 1.04166 23.492 1.04166 22.9167Z" fill="#8B4AA3"/>
<path opacity="0.4" fill-rule="evenodd" clip-rule="evenodd" d="M19.0683 1.9568C17.848 0.736407 15.8694 0.736407 14.649 1.9568L3.53026 13.0755C3.11001 13.4958 2.81831 14.0271 2.68938 14.6073L2.13442 17.1046C1.80362 18.5932 3.13154 19.9211 4.62007 19.5904L7.11743 19.0354C7.6976 18.9064 8.22898 18.6147 8.64923 18.1945L19.7679 7.07576C20.9883 5.85538 20.9883 3.87674 19.7679 2.65635L19.0683 1.9568ZM16.1221 3.42993C16.5289 3.02314 17.1884 3.02314 17.5952 3.42993L18.2948 4.12949C18.7016 4.53628 18.7016 5.19584 18.2948 5.60263L16.2931 7.60427L14.1204 5.43159L16.1221 3.42993ZM12.6473 6.90472L5.00339 14.5487C4.86331 14.6887 4.76608 14.8659 4.7231 15.0592L4.16813 17.5566L6.66549 17.0016C6.85888 16.9587 7.03601 16.8614 7.17609 16.7213L14.82 9.07742L12.6473 6.90472Z" fill="#8B4AA3"/>
</svg>
