<svg width="60" height="60" viewBox="0 0 60 60" fill="none" xmlns="http://www.w3.org/2000/svg">
<path d="M44.7317 51.5198C42.84 51.5198 41.0617 50.7823 39.7233 49.4448L30 39.7223L20.2767 49.4448C18.94 50.7823 17.1608 51.5198 15.2683 51.5198C13.3758 51.5198 11.5983 50.7823 10.26 49.4448C8.9225 48.1082 8.185 46.329 8.185 44.4365C8.185 42.544 8.9225 40.7657 10.2608 39.4273L19.9825 29.7048L10.8492 20.5707C9.51166 19.234 8.77416 17.4548 8.77416 15.5623C8.77416 13.6698 9.51166 11.8915 10.8492 10.554C12.1867 9.2165 13.965 8.479 15.8583 8.479C17.7508 8.479 19.5292 9.2165 20.8667 10.554L30 19.6882L39.1333 10.5548C40.4708 9.21734 42.2483 8.47984 44.1417 8.47984C46.035 8.47984 47.8133 9.21734 49.15 10.5548C50.4875 11.8915 51.225 13.6707 51.225 15.5632C51.225 17.4557 50.4875 19.234 49.15 20.5715L40.0175 29.7048L49.7392 39.4282C51.0767 40.7648 51.8142 42.5432 51.8142 44.4365C51.8142 46.329 51.0767 48.1073 49.7392 49.4448C48.4033 50.7823 46.6242 51.5198 44.7317 51.5198ZM30 35.699C30.4258 35.699 30.8525 35.8615 31.1783 36.1873L42.08 47.0882C42.79 47.7973 43.73 48.1865 44.7317 48.1865C45.7342 48.1865 46.675 47.7965 47.3833 47.0882C48.0933 46.379 48.4817 45.4382 48.4817 44.4365C48.4817 43.4348 48.0925 42.4932 47.3833 41.7857L36.4833 30.8832C35.8325 30.2323 35.8325 29.1773 36.4833 28.5265L46.7942 18.214C47.5042 17.5048 47.8925 16.5648 47.8925 15.5623C47.8925 14.5598 47.5033 13.6198 46.7942 12.9107C46.0858 12.2015 45.1442 11.8123 44.1425 11.8123C43.1408 11.8123 42.1992 12.2023 41.4925 12.9107L31.1783 23.2232C30.5275 23.874 29.4733 23.874 28.8217 23.2232L18.5083 12.9115C17.8 12.2023 16.8592 11.8132 15.8575 11.8132C14.8558 11.8132 13.9142 12.2032 13.2058 12.9115C12.4967 13.6207 12.1067 14.5607 12.1067 15.5632C12.1067 16.5657 12.4975 17.5057 13.205 18.2148L23.5167 28.5273C24.1675 29.1782 24.1675 30.2332 23.5167 30.884L12.6167 41.7857C11.9083 42.494 11.5183 43.4348 11.5183 44.4373C11.5183 45.4382 11.9092 46.3798 12.6167 47.089C13.3258 47.7982 14.2667 48.1873 15.2683 48.1873C16.27 48.1873 17.2117 47.7973 17.92 47.089L28.8225 36.1882C29.1475 35.8615 29.5742 35.699 30 35.699Z" fill="white"/>
</svg>
